<mxfile host="65bd71144e">
    <diagram id="igdpagmYWE806KtzFgo8" name="ページ1">
        <mxGraphModel dx="1984" dy="243" grid="1" gridSize="10" guides="1" tooltips="1" connect="1" arrows="1" fold="1" page="0" pageScale="1" pageWidth="827" pageHeight="1169" background="none" math="0" shadow="0">
            <root>
                <mxCell id="0"/>
                <mxCell id="1" parent="0"/>
                <mxCell id="4" value="" style="endArrow=classic;html=1;exitX=0.994;exitY=0.155;exitDx=0;exitDy=0;exitPerimeter=0;jumpStyle=arc;entryX=0.5;entryY=0;entryDx=0;entryDy=0;" parent="1" target="7" edge="1">
                    <mxGeometry width="50" height="50" relative="1" as="geometry">
                        <mxPoint x="-1200.72" y="577.4425000000001" as="sourcePoint"/>
                        <mxPoint x="-880" y="576.94" as="targetPoint"/>
                    </mxGeometry>
                </mxCell>
                <mxCell id="5" value="sClearSale" style="edgeLabel;html=1;align=center;verticalAlign=middle;resizable=0;points=[];" parent="4" vertex="1" connectable="0">
                    <mxGeometry x="0.7075" y="-1" relative="1" as="geometry">
                        <mxPoint x="-67" y="-11" as="offset"/>
                    </mxGeometry>
                </mxCell>
                <mxCell id="7" value="" style="verticalLabelPosition=bottom;verticalAlign=top;html=1;shape=offPageConnector;rounded=0;size=0.2916666666666667;rotation=-90;" parent="1" vertex="1">
                    <mxGeometry x="-818" y="534.94" width="40" height="85" as="geometry"/>
                </mxCell>
                <mxCell id="8" value="" style="endArrow=classic;html=1;entryX=0;entryY=0.782;entryDx=0;entryDy=0;entryPerimeter=0;jumpStyle=arc;exitX=1.014;exitY=0.19;exitDx=0;exitDy=0;exitPerimeter=0;" parent="1" target="22" edge="1">
                    <mxGeometry width="50" height="50" relative="1" as="geometry">
                        <mxPoint x="-1198.3200000000002" y="617.1850000000002" as="sourcePoint"/>
                        <mxPoint x="-630" y="503.94" as="targetPoint"/>
                    </mxGeometry>
                </mxCell>
                <mxCell id="9" value="sFuelPulses" style="edgeLabel;html=1;align=center;verticalAlign=middle;resizable=0;points=[];" parent="8" vertex="1" connectable="0">
                    <mxGeometry x="0.7075" y="-1" relative="1" as="geometry">
                        <mxPoint x="20" y="-16" as="offset"/>
                    </mxGeometry>
                </mxCell>
                <mxCell id="10" value="" style="endArrow=none;html=1;endFill=0;jumpStyle=arc;entryX=-0.01;entryY=0.173;entryDx=0;entryDy=0;entryPerimeter=0;" parent="1" target="22" edge="1">
                    <mxGeometry width="50" height="50" relative="1" as="geometry">
                        <mxPoint x="-1160" y="416.94" as="sourcePoint"/>
                        <mxPoint x="-610" y="379.44" as="targetPoint"/>
                    </mxGeometry>
                </mxCell>
                <mxCell id="11" value="calivration" style="edgeLabel;html=1;align=center;verticalAlign=middle;resizable=0;points=[];" parent="10" vertex="1" connectable="0">
                    <mxGeometry x="0.7075" y="-1" relative="1" as="geometry">
                        <mxPoint x="-16" y="-9" as="offset"/>
                    </mxGeometry>
                </mxCell>
                <mxCell id="12" value="" style="endArrow=classic;html=1;jumpStyle=arc;exitX=1.02;exitY=0.013;exitDx=0;exitDy=0;exitPerimeter=0;" parent="1" edge="1">
                    <mxGeometry width="50" height="50" relative="1" as="geometry">
                        <mxPoint x="-1197.6000000000001" y="416.20150000000007" as="sourcePoint"/>
                        <mxPoint x="-1160" y="416.94" as="targetPoint"/>
                    </mxGeometry>
                </mxCell>
                <mxCell id="13" value="" style="endArrow=none;html=1;endFill=0;jumpStyle=arc;entryX=-0.004;entryY=0.296;entryDx=0;entryDy=0;entryPerimeter=0;" parent="1" target="22" edge="1">
                    <mxGeometry width="50" height="50" relative="1" as="geometry">
                        <mxPoint x="-1160" y="456.94" as="sourcePoint"/>
                        <mxPoint x="-610" y="409.44" as="targetPoint"/>
                    </mxGeometry>
                </mxCell>
                <mxCell id="14" value="price1" style="edgeLabel;html=1;align=center;verticalAlign=middle;resizable=0;points=[];" parent="13" vertex="1" connectable="0">
                    <mxGeometry x="0.7075" y="-1" relative="1" as="geometry">
                        <mxPoint x="-16" y="-9" as="offset"/>
                    </mxGeometry>
                </mxCell>
                <mxCell id="15" value="" style="endArrow=classic;html=1;jumpStyle=arc;exitX=1.002;exitY=0.049;exitDx=0;exitDy=0;exitPerimeter=0;" parent="1" edge="1">
                    <mxGeometry width="50" height="50" relative="1" as="geometry">
                        <mxPoint x="-1199.76" y="457.0795" as="sourcePoint"/>
                        <mxPoint x="-1160" y="456.94" as="targetPoint"/>
                    </mxGeometry>
                </mxCell>
                <mxCell id="16" value="" style="endArrow=none;html=1;endFill=0;entryX=-0.006;entryY=0.414;entryDx=0;entryDy=0;jumpStyle=arc;entryPerimeter=0;" parent="1" target="22" edge="1">
                    <mxGeometry width="50" height="50" relative="1" as="geometry">
                        <mxPoint x="-1160" y="495.94" as="sourcePoint"/>
                        <mxPoint x="-600" y="456.43999999999977" as="targetPoint"/>
                    </mxGeometry>
                </mxCell>
                <mxCell id="17" value="price2" style="edgeLabel;html=1;align=center;verticalAlign=middle;resizable=0;points=[];" parent="16" vertex="1" connectable="0">
                    <mxGeometry x="0.7075" y="-1" relative="1" as="geometry">
                        <mxPoint x="-16" y="-9" as="offset"/>
                    </mxGeometry>
                </mxCell>
                <mxCell id="18" value="" style="endArrow=classic;html=1;jumpStyle=arc;exitX=1.015;exitY=0.084;exitDx=0;exitDy=0;exitPerimeter=0;" parent="1" edge="1">
                    <mxGeometry width="50" height="50" relative="1" as="geometry">
                        <mxPoint x="-1198.2" y="496.82200000000006" as="sourcePoint"/>
                        <mxPoint x="-1160" y="496.94" as="targetPoint"/>
                    </mxGeometry>
                </mxCell>
                <mxCell id="19" value="" style="endArrow=none;html=1;endFill=0;entryX=-0.008;entryY=0.538;entryDx=0;entryDy=0;entryPerimeter=0;jumpStyle=arc;" parent="1" target="22" edge="1">
                    <mxGeometry width="50" height="50" relative="1" as="geometry">
                        <mxPoint x="-1160" y="536.94" as="sourcePoint"/>
                        <mxPoint x="-602.04" y="492.0800000000001" as="targetPoint"/>
                    </mxGeometry>
                </mxCell>
                <mxCell id="20" value="price3" style="edgeLabel;html=1;align=center;verticalAlign=middle;resizable=0;points=[];" parent="19" vertex="1" connectable="0">
                    <mxGeometry x="0.7075" y="-1" relative="1" as="geometry">
                        <mxPoint x="-16" y="-9" as="offset"/>
                    </mxGeometry>
                </mxCell>
                <mxCell id="21" value="" style="endArrow=classic;html=1;jumpStyle=arc;exitX=1;exitY=0.119;exitDx=0;exitDy=0;exitPerimeter=0;" parent="1" edge="1">
                    <mxGeometry width="50" height="50" relative="1" as="geometry">
                        <mxPoint x="-1200" y="536.5645000000002" as="sourcePoint"/>
                        <mxPoint x="-1160" y="536.94" as="targetPoint"/>
                    </mxGeometry>
                </mxCell>
                <mxCell id="22" value="Fill" style="shape=process;whiteSpace=wrap;html=1;backgroundOutline=1;" parent="1" vertex="1">
                    <mxGeometry x="-600" y="358.94" width="120" height="330" as="geometry"/>
                </mxCell>
                <mxCell id="23" value="NotifyPointOfSale" style="shape=process;whiteSpace=wrap;html=1;backgroundOutline=1;" parent="1" vertex="1">
                    <mxGeometry x="-240" y="1080" width="120" height="280" as="geometry"/>
                </mxCell>
                <mxCell id="25" value="LifeCycle" style="shape=process;whiteSpace=wrap;html=1;backgroundOutline=1;" parent="1" vertex="1">
                    <mxGeometry x="-1080" y="1230" width="120" height="180" as="geometry"/>
                </mxCell>
                <mxCell id="28" value="Keypad" style="shape=process;whiteSpace=wrap;html=1;backgroundOutline=1;" parent="1" vertex="1">
                    <mxGeometry x="-280" y="1560" width="120" height="160" as="geometry"/>
                </mxCell>
                <mxCell id="29" value="Preset" style="shape=process;whiteSpace=wrap;html=1;backgroundOutline=1;" parent="1" vertex="1">
                    <mxGeometry x="360" y="1120" width="120" height="200" as="geometry"/>
                </mxCell>
                <mxCell id="33" value="" style="endArrow=classic;html=1;jumpStyle=arc;exitX=1.003;exitY=0.401;exitDx=0;exitDy=0;exitPerimeter=0;" parent="1" source="29" edge="1">
                    <mxGeometry width="50" height="50" relative="1" as="geometry">
                        <mxPoint x="760" y="640" as="sourcePoint"/>
                        <mxPoint x="920" y="1200" as="targetPoint"/>
                    </mxGeometry>
                </mxCell>
                <mxCell id="35" value="" style="endArrow=none;html=1;endFill=0;jumpStyle=arc;entryX=-0.004;entryY=0.626;entryDx=0;entryDy=0;entryPerimeter=0;" parent="1" edge="1">
                    <mxGeometry width="50" height="50" relative="1" as="geometry">
                        <mxPoint x="920" y="1200" as="sourcePoint"/>
                        <mxPoint x="1309.5199999999995" y="1198.9999999999995" as="targetPoint"/>
                    </mxGeometry>
                </mxCell>
                <mxCell id="36" value="saleCostLCD" style="edgeLabel;html=1;align=center;verticalAlign=middle;resizable=0;points=[];" parent="35" vertex="1" connectable="0">
                    <mxGeometry x="0.7021" relative="1" as="geometry">
                        <mxPoint x="-11" y="-829" as="offset"/>
                    </mxGeometry>
                </mxCell>
                <mxCell id="155" value="delivery" style="edgeLabel;html=1;align=center;verticalAlign=middle;resizable=0;points=[];" parent="35" vertex="1" connectable="0">
                    <mxGeometry x="0.6536" y="3" relative="1" as="geometry">
                        <mxPoint x="20" y="-26" as="offset"/>
                    </mxGeometry>
                </mxCell>
                <mxCell id="37" value="" style="endArrow=classic;html=1;jumpStyle=arc;" parent="1" edge="1">
                    <mxGeometry width="50" height="50" relative="1" as="geometry">
                        <mxPoint x="-480" y="400" as="sourcePoint"/>
                        <mxPoint x="120" y="400" as="targetPoint"/>
                        <Array as="points">
                            <mxPoint x="-80" y="400"/>
                        </Array>
                    </mxGeometry>
                </mxCell>
                <mxCell id="38" value="" style="endArrow=none;html=1;endFill=0;entryX=0.5;entryY=0;entryDx=0;entryDy=0;jumpStyle=arc;" parent="1" target="40" edge="1">
                    <mxGeometry width="50" height="50" relative="1" as="geometry">
                        <mxPoint x="120" y="399" as="sourcePoint"/>
                        <mxPoint x="760.96" y="849.99" as="targetPoint"/>
                    </mxGeometry>
                </mxCell>
                <mxCell id="39" value="dollarsDelivered" style="edgeLabel;html=1;align=center;verticalAlign=middle;resizable=0;points=[];" parent="38" vertex="1" connectable="0">
                    <mxGeometry x="0.7021" relative="1" as="geometry">
                        <mxPoint x="-29" y="-21" as="offset"/>
                    </mxGeometry>
                </mxCell>
                <mxCell id="40" value="" style="verticalLabelPosition=bottom;verticalAlign=top;html=1;shape=offPageConnector;rounded=0;size=0.2916666666666667;rotation=-90;" parent="1" vertex="1">
                    <mxGeometry x="819.0300000000001" y="358.94" width="43.5" height="79.62" as="geometry"/>
                </mxCell>
                <mxCell id="41" value="" style="endArrow=classic;html=1;exitX=0.5;exitY=1;exitDx=0;exitDy=0;jumpStyle=arc;" parent="1" source="40" edge="1">
                    <mxGeometry width="50" height="50" relative="1" as="geometry">
                        <mxPoint x="890.9599999999999" y="869.99" as="sourcePoint"/>
                        <mxPoint x="1040.96" y="399.99" as="targetPoint"/>
                    </mxGeometry>
                </mxCell>
                <mxCell id="42" value="" style="endArrow=none;html=1;endFill=0;jumpStyle=arc;entryX=-0.013;entryY=0.093;entryDx=0;entryDy=0;entryPerimeter=0;" parent="1" edge="1">
                    <mxGeometry width="50" height="50" relative="1" as="geometry">
                        <mxPoint x="1040.96" y="399.99" as="sourcePoint"/>
                        <mxPoint x="1308.4400000000005" y="399.49999999999955" as="targetPoint"/>
                    </mxGeometry>
                </mxCell>
                <mxCell id="44" value="" style="endArrow=classic;html=1;exitX=1.007;exitY=0.363;exitDx=0;exitDy=0;jumpStyle=arc;exitPerimeter=0;" parent="1" source="22" edge="1">
                    <mxGeometry width="50" height="50" relative="1" as="geometry">
                        <mxPoint x="285.28" y="810.53" as="sourcePoint"/>
                        <mxPoint x="160" y="480" as="targetPoint"/>
                        <Array as="points">
                            <mxPoint x="-40" y="480"/>
                        </Array>
                    </mxGeometry>
                </mxCell>
                <mxCell id="45" value="" style="endArrow=none;html=1;endFill=0;entryX=0.5;entryY=0;entryDx=0;entryDy=0;jumpStyle=arc;" parent="1" target="47" edge="1">
                    <mxGeometry width="50" height="50" relative="1" as="geometry">
                        <mxPoint x="160" y="480" as="sourcePoint"/>
                        <mxPoint x="762.4" y="854" as="targetPoint"/>
                    </mxGeometry>
                </mxCell>
                <mxCell id="46" value="litersDelivered" style="edgeLabel;html=1;align=center;verticalAlign=middle;resizable=0;points=[];" parent="45" vertex="1" connectable="0">
                    <mxGeometry x="0.7021" relative="1" as="geometry">
                        <mxPoint x="-29" y="-21" as="offset"/>
                    </mxGeometry>
                </mxCell>
                <mxCell id="47" value="" style="verticalLabelPosition=bottom;verticalAlign=top;html=1;shape=offPageConnector;rounded=0;size=0.2916666666666667;rotation=-90;" parent="1" vertex="1">
                    <mxGeometry x="817.44" y="438.56" width="47.75" height="82.63" as="geometry"/>
                </mxCell>
                <mxCell id="48" value="" style="endArrow=classic;html=1;exitX=0.5;exitY=1;exitDx=0;exitDy=0;jumpStyle=arc;" parent="1" source="47" edge="1">
                    <mxGeometry width="50" height="50" relative="1" as="geometry">
                        <mxPoint x="892.3999999999999" y="874" as="sourcePoint"/>
                        <mxPoint x="1040" y="480" as="targetPoint"/>
                    </mxGeometry>
                </mxCell>
                <mxCell id="49" value="" style="endArrow=none;html=1;endFill=0;entryX=-0.035;entryY=0.146;entryDx=0;entryDy=0;entryPerimeter=0;jumpStyle=arc;" parent="1" edge="1">
                    <mxGeometry width="50" height="50" relative="1" as="geometry">
                        <mxPoint x="1040" y="480" as="sourcePoint"/>
                        <mxPoint x="1305.8000000000002" y="479" as="targetPoint"/>
                    </mxGeometry>
                </mxCell>
                <mxCell id="51" value="ShowDollarsPump.priceLCD" style="shape=process;whiteSpace=wrap;html=1;backgroundOutline=1;" parent="1" vertex="1">
                    <mxGeometry x="750" y="558" width="240" height="160" as="geometry"/>
                </mxCell>
                <mxCell id="52" value="ShowDollarsPump.priceLCD" style="shape=process;whiteSpace=wrap;html=1;backgroundOutline=1;" parent="1" vertex="1">
                    <mxGeometry x="750" y="760" width="240" height="160" as="geometry"/>
                </mxCell>
                <mxCell id="53" value="ShowDollarsPump.priceLCD" style="shape=process;whiteSpace=wrap;html=1;backgroundOutline=1;" parent="1" vertex="1">
                    <mxGeometry x="750" y="960" width="240" height="160" as="geometry"/>
                </mxCell>
                <mxCell id="61" value="" style="endArrow=none;html=1;endFill=0;exitX=1.022;exitY=0.713;exitDx=0;exitDy=0;jumpStyle=arc;exitPerimeter=0;entryX=-0.006;entryY=0.733;entryDx=0;entryDy=0;entryPerimeter=0;" parent="1" source="23" edge="1">
                    <mxGeometry width="50" height="50" relative="1" as="geometry">
                        <mxPoint x="840" y="493" as="sourcePoint"/>
                        <mxPoint x="1309.2799999999997" y="1359.4999999999995" as="targetPoint"/>
                        <Array as="points">
                            <mxPoint x="80" y="1281"/>
                            <mxPoint x="80" y="1360"/>
                            <mxPoint x="280" y="1360"/>
                            <mxPoint x="560" y="1360"/>
                            <mxPoint x="830" y="1360"/>
                        </Array>
                    </mxGeometry>
                </mxCell>
                <mxCell id="62" value="sSaleComplete" style="edgeLabel;html=1;align=center;verticalAlign=middle;resizable=0;points=[];" parent="61" vertex="1" connectable="0">
                    <mxGeometry x="0.7021" relative="1" as="geometry">
                        <mxPoint x="170" y="-10" as="offset"/>
                    </mxGeometry>
                </mxCell>
                <mxCell id="63" value="" style="endArrow=none;html=1;endFill=0;jumpStyle=arc;entryX=0.5;entryY=0;entryDx=0;entryDy=0;" parent="1" target="65" edge="1">
                    <mxGeometry width="50" height="50" relative="1" as="geometry">
                        <mxPoint x="120" y="1680" as="sourcePoint"/>
                        <mxPoint x="1200" y="1680" as="targetPoint"/>
                    </mxGeometry>
                </mxCell>
                <mxCell id="64" value="value" style="edgeLabel;html=1;align=center;verticalAlign=middle;resizable=0;points=[];" parent="63" vertex="1" connectable="0">
                    <mxGeometry x="0.7021" relative="1" as="geometry">
                        <mxPoint x="-12" y="-10" as="offset"/>
                    </mxGeometry>
                </mxCell>
                <mxCell id="65" value="" style="verticalLabelPosition=bottom;verticalAlign=top;html=1;shape=offPageConnector;rounded=0;size=0.2916666666666667;rotation=-90;" parent="1" vertex="1">
                    <mxGeometry x="1010" y="1640" width="43" height="80" as="geometry"/>
                </mxCell>
                <mxCell id="66" value="" style="endArrow=none;html=1;endFill=0;entryX=-0.003;entryY=0.947;entryDx=0;entryDy=0;entryPerimeter=0;jumpStyle=arc;" parent="1" edge="1">
                    <mxGeometry width="50" height="50" relative="1" as="geometry">
                        <mxPoint x="1160" y="1681" as="sourcePoint"/>
                        <mxPoint x="1309.6400000000003" y="1680.4999999999995" as="targetPoint"/>
                    </mxGeometry>
                </mxCell>
                <mxCell id="81" value="presetLCD" style="edgeLabel;html=1;align=center;verticalAlign=middle;resizable=0;points=[];" parent="66" vertex="1" connectable="0">
                    <mxGeometry x="0.6341" y="3" relative="1" as="geometry">
                        <mxPoint x="-52" y="-12" as="offset"/>
                    </mxGeometry>
                </mxCell>
                <mxCell id="68" value="" style="endArrow=classic;html=1;exitX=0.5;exitY=1;exitDx=0;exitDy=0;jumpStyle=arc;" parent="1" source="65" edge="1">
                    <mxGeometry width="50" height="50" relative="1" as="geometry">
                        <mxPoint x="1250" y="1770" as="sourcePoint"/>
                        <mxPoint x="1160" y="1680" as="targetPoint"/>
                    </mxGeometry>
                </mxCell>
                <mxCell id="73" value="" style="endArrow=classic;html=1;endFill=1;jumpStyle=arc;exitX=1;exitY=0.25;exitDx=0;exitDy=0;" parent="1" source="28" edge="1">
                    <mxGeometry width="50" height="50" relative="1" as="geometry">
                        <mxPoint x="-170" y="1640" as="sourcePoint"/>
                        <mxPoint x="40" y="1600" as="targetPoint"/>
                    </mxGeometry>
                </mxCell>
                <mxCell id="74" value="sBeep" style="edgeLabel;html=1;align=center;verticalAlign=middle;resizable=0;points=[];" parent="73" vertex="1" connectable="0">
                    <mxGeometry x="0.7021" relative="1" as="geometry">
                        <mxPoint x="-12" y="-10" as="offset"/>
                    </mxGeometry>
                </mxCell>
                <mxCell id="75" value="orElse" style="shape=trapezoid;perimeter=trapezoidPerimeter;whiteSpace=wrap;html=1;fixedSize=1;rotation=90;" parent="1" vertex="1">
                    <mxGeometry x="0.63" y="1518.63" width="158.25" height="78.5" as="geometry"/>
                </mxCell>
                <mxCell id="77" value="" style="endArrow=classic;html=1;endFill=1;jumpStyle=arc;exitX=1.01;exitY=0.859;exitDx=0;exitDy=0;exitPerimeter=0;" parent="1" source="23" edge="1">
                    <mxGeometry width="50" height="50" relative="1" as="geometry">
                        <mxPoint x="-120" y="1310" as="sourcePoint"/>
                        <mxPoint x="40" y="1520" as="targetPoint"/>
                        <Array as="points">
                            <mxPoint y="1320"/>
                            <mxPoint y="1520"/>
                        </Array>
                    </mxGeometry>
                </mxCell>
                <mxCell id="78" value="sBeep" style="edgeLabel;html=1;align=center;verticalAlign=middle;resizable=0;points=[];" parent="77" vertex="1" connectable="0">
                    <mxGeometry x="0.7021" relative="1" as="geometry">
                        <mxPoint x="-12" y="-10" as="offset"/>
                    </mxGeometry>
                </mxCell>
                <mxCell id="79" value="" style="endArrow=classic;html=1;endFill=1;exitX=0.5;exitY=0;exitDx=0;exitDy=0;entryX=0;entryY=0.867;entryDx=0;entryDy=0;entryPerimeter=0;jumpStyle=arc;" parent="1" source="75" edge="1">
                    <mxGeometry width="50" height="50" relative="1" as="geometry">
                        <mxPoint x="1330" y="1660" as="sourcePoint"/>
                        <mxPoint x="1310" y="1560.5" as="targetPoint"/>
                    </mxGeometry>
                </mxCell>
                <mxCell id="80" value="sBeep" style="edgeLabel;html=1;align=center;verticalAlign=middle;resizable=0;points=[];" parent="79" vertex="1" connectable="0">
                    <mxGeometry x="0.7021" relative="1" as="geometry">
                        <mxPoint x="142" y="-10" as="offset"/>
                    </mxGeometry>
                </mxCell>
                <mxCell id="83" value="" style="endArrow=classic;html=1;exitX=0.5;exitY=1;exitDx=0;exitDy=0;jumpStyle=arc;entryX=-0.003;entryY=0.66;entryDx=0;entryDy=0;entryPerimeter=0;" parent="1" source="7" target="22" edge="1">
                    <mxGeometry width="50" height="50" relative="1" as="geometry">
                        <mxPoint x="-789.9999999999998" y="362.16" as="sourcePoint"/>
                        <mxPoint x="-603" y="576.94" as="targetPoint"/>
                    </mxGeometry>
                </mxCell>
                <mxCell id="85" value="sClearAccumulator" style="edgeLabel;html=1;align=center;verticalAlign=middle;resizable=0;points=[];" parent="83" vertex="1" connectable="0">
                    <mxGeometry x="0.8043" y="1" relative="1" as="geometry">
                        <mxPoint x="-70" y="-9" as="offset"/>
                    </mxGeometry>
                </mxCell>
                <mxCell id="89" value="" style="endArrow=classic;html=1;entryX=0.004;entryY=0.903;entryDx=0;entryDy=0;entryPerimeter=0;jumpStyle=arc;exitX=1.013;exitY=0.283;exitDx=0;exitDy=0;exitPerimeter=0;" parent="1" source="23" target="22" edge="1">
                    <mxGeometry width="50" height="50" relative="1" as="geometry">
                        <mxPoint x="-115" y="1155" as="sourcePoint"/>
                        <mxPoint x="-570.06" y="1300.1399999999999" as="targetPoint"/>
                        <Array as="points">
                            <mxPoint x="-40" y="1160"/>
                            <mxPoint x="-40" y="960"/>
                            <mxPoint x="-680" y="960"/>
                            <mxPoint x="-680" y="657"/>
                        </Array>
                    </mxGeometry>
                </mxCell>
                <mxCell id="90" value="sStart" style="edgeLabel;html=1;align=center;verticalAlign=middle;resizable=0;points=[];" parent="89" vertex="1" connectable="0">
                    <mxGeometry x="0.8043" y="1" relative="1" as="geometry">
                        <mxPoint x="11" y="-49" as="offset"/>
                    </mxGeometry>
                </mxCell>
                <mxCell id="91" value="" style="endArrow=classic;html=1;entryX=-0.013;entryY=0.271;entryDx=0;entryDy=0;entryPerimeter=0;jumpStyle=arc;exitX=1.016;exitY=0.612;exitDx=0;exitDy=0;exitPerimeter=0;" parent="1" target="25" edge="1">
                    <mxGeometry width="50" height="50" relative="1" as="geometry">
                        <mxPoint x="-1198.08" y="1279.426" as="sourcePoint"/>
                        <mxPoint x="-750" y="1067" as="targetPoint"/>
                    </mxGeometry>
                </mxCell>
                <mxCell id="92" value="sNozzle1" style="edgeLabel;html=1;align=center;verticalAlign=middle;resizable=0;points=[];" parent="91" vertex="1" connectable="0">
                    <mxGeometry x="0.8043" y="1" relative="1" as="geometry">
                        <mxPoint x="-9" y="-17" as="offset"/>
                    </mxGeometry>
                </mxCell>
                <mxCell id="97" value="" style="endArrow=classic;html=1;entryX=0;entryY=0.5;entryDx=0;entryDy=0;jumpStyle=arc;exitX=1;exitY=0.648;exitDx=0;exitDy=0;exitPerimeter=0;" parent="1" target="25" edge="1">
                    <mxGeometry width="50" height="50" relative="1" as="geometry">
                        <mxPoint x="-1200" y="1320.304" as="sourcePoint"/>
                        <mxPoint x="-750" y="1128" as="targetPoint"/>
                    </mxGeometry>
                </mxCell>
                <mxCell id="98" value="sNozzle2" style="edgeLabel;html=1;align=center;verticalAlign=middle;resizable=0;points=[];" parent="97" vertex="1" connectable="0">
                    <mxGeometry x="0.8043" y="1" relative="1" as="geometry">
                        <mxPoint x="-9" y="-17" as="offset"/>
                    </mxGeometry>
                </mxCell>
                <mxCell id="99" value="" style="endArrow=classic;html=1;entryX=-0.007;entryY=0.723;entryDx=0;entryDy=0;entryPerimeter=0;jumpStyle=arc;exitX=1.002;exitY=0.682;exitDx=0;exitDy=0;exitPerimeter=0;" parent="1" target="25" edge="1">
                    <mxGeometry width="50" height="50" relative="1" as="geometry">
                        <mxPoint x="-1199.76" y="1358.911" as="sourcePoint"/>
                        <mxPoint x="-750" y="1208" as="targetPoint"/>
                    </mxGeometry>
                </mxCell>
                <mxCell id="100" value="sNozzle3" style="edgeLabel;html=1;align=center;verticalAlign=middle;resizable=0;points=[];" parent="99" vertex="1" connectable="0">
                    <mxGeometry x="0.8043" y="1" relative="1" as="geometry">
                        <mxPoint x="-9" y="-17" as="offset"/>
                    </mxGeometry>
                </mxCell>
                <mxCell id="101" value="" style="endArrow=classic;html=1;jumpStyle=arc;entryX=-0.01;entryY=0.57;entryDx=0;entryDy=0;entryPerimeter=0;" parent="1" target="23" edge="1">
                    <mxGeometry width="50" height="50" relative="1" as="geometry">
                        <mxPoint x="-880" y="580" as="sourcePoint"/>
                        <mxPoint x="-190" y="1480" as="targetPoint"/>
                        <Array as="points">
                            <mxPoint x="-880" y="1240"/>
                        </Array>
                    </mxGeometry>
                </mxCell>
                <mxCell id="102" value="sClearSale" style="edgeLabel;html=1;align=center;verticalAlign=middle;resizable=0;points=[];" parent="101" vertex="1" connectable="0">
                    <mxGeometry x="0.8043" y="1" relative="1" as="geometry">
                        <mxPoint x="16" y="-8" as="offset"/>
                    </mxGeometry>
                </mxCell>
                <mxCell id="103" value="" style="endArrow=classic;html=1;entryX=0;entryY=0.75;entryDx=0;entryDy=0;jumpStyle=arc;exitX=1;exitY=0.965;exitDx=0;exitDy=0;exitPerimeter=0;" parent="1" target="28" edge="1">
                    <mxGeometry width="50" height="50" relative="1" as="geometry">
                        <mxPoint x="-1200" y="1680.2574999999997" as="sourcePoint"/>
                        <mxPoint x="-234.99999999999955" y="1715.94" as="targetPoint"/>
                    </mxGeometry>
                </mxCell>
                <mxCell id="104" value="sKeypad" style="edgeLabel;html=1;align=center;verticalAlign=middle;resizable=0;points=[];" parent="103" vertex="1" connectable="0">
                    <mxGeometry x="0.8043" y="1" relative="1" as="geometry">
                        <mxPoint x="-779" y="-19" as="offset"/>
                    </mxGeometry>
                </mxCell>
                <mxCell id="105" value="" style="endArrow=classic;html=1;jumpStyle=arc;" parent="1" edge="1">
                    <mxGeometry width="50" height="50" relative="1" as="geometry">
                        <mxPoint x="-920" y="580" as="sourcePoint"/>
                        <mxPoint x="-280" y="1640" as="targetPoint"/>
                        <Array as="points">
                            <mxPoint x="-920" y="1640"/>
                        </Array>
                    </mxGeometry>
                </mxCell>
                <mxCell id="106" value="sClearSale" style="edgeLabel;html=1;align=center;verticalAlign=middle;resizable=0;points=[];" parent="105" vertex="1" connectable="0">
                    <mxGeometry x="0.8043" y="1" relative="1" as="geometry">
                        <mxPoint x="75" y="-17" as="offset"/>
                    </mxGeometry>
                </mxCell>
                <mxCell id="107" value="" style="endArrow=classic;html=1;jumpStyle=arc;exitX=1.009;exitY=0.602;exitDx=0;exitDy=0;exitPerimeter=0;" parent="1" source="29" edge="1">
                    <mxGeometry width="50" height="50" relative="1" as="geometry">
                        <mxPoint x="480" y="1170" as="sourcePoint"/>
                        <mxPoint x="-440" y="1540" as="targetPoint"/>
                        <Array as="points">
                            <mxPoint x="640" y="1240"/>
                            <mxPoint x="640" y="1440"/>
                            <mxPoint x="-440" y="1440"/>
                        </Array>
                    </mxGeometry>
                </mxCell>
                <mxCell id="108" value="" style="endArrow=none;html=1;endFill=0;entryX=0;entryY=0.25;entryDx=0;entryDy=0;jumpStyle=arc;" parent="1" target="28" edge="1">
                    <mxGeometry width="50" height="50" relative="1" as="geometry">
                        <mxPoint x="-440" y="1540" as="sourcePoint"/>
                        <mxPoint x="-259" y="2009.5" as="targetPoint"/>
                        <Array as="points">
                            <mxPoint x="-440" y="1600"/>
                        </Array>
                    </mxGeometry>
                </mxCell>
                <mxCell id="109" value="keypadActive" style="edgeLabel;html=1;align=center;verticalAlign=middle;resizable=0;points=[];" parent="108" vertex="1" connectable="0">
                    <mxGeometry x="0.7021" relative="1" as="geometry">
                        <mxPoint x="-29" y="-21" as="offset"/>
                    </mxGeometry>
                </mxCell>
                <mxCell id="110" value="" style="endArrow=none;html=1;endFill=0;jumpStyle=arc;entryX=0.006;entryY=0.788;entryDx=0;entryDy=0;entryPerimeter=0;" parent="1" target="29" edge="1">
                    <mxGeometry width="50" height="50" relative="1" as="geometry">
                        <mxPoint x="120" y="1680" as="sourcePoint"/>
                        <mxPoint x="350" y="1200" as="targetPoint"/>
                        <Array as="points">
                            <mxPoint x="160" y="1680"/>
                            <mxPoint x="160" y="1280"/>
                        </Array>
                    </mxGeometry>
                </mxCell>
                <mxCell id="111" value="value" style="edgeLabel;html=1;align=center;verticalAlign=middle;resizable=0;points=[];" parent="110" vertex="1" connectable="0">
                    <mxGeometry x="0.7021" relative="1" as="geometry">
                        <mxPoint x="5" y="-10" as="offset"/>
                    </mxGeometry>
                </mxCell>
                <mxCell id="112" value="" style="endArrow=classic;html=1;exitX=1;exitY=0.75;exitDx=0;exitDy=0;jumpStyle=arc;" parent="1" source="28" edge="1">
                    <mxGeometry width="50" height="50" relative="1" as="geometry">
                        <mxPoint x="-120" y="1916.52" as="sourcePoint"/>
                        <mxPoint x="120" y="1680" as="targetPoint"/>
                    </mxGeometry>
                </mxCell>
                <mxCell id="113" value="" style="endArrow=classic;html=1;exitX=1.013;exitY=0.571;exitDx=0;exitDy=0;jumpStyle=arc;exitPerimeter=0;" parent="1" source="23" edge="1">
                    <mxGeometry width="50" height="50" relative="1" as="geometry">
                        <mxPoint x="-9.999999999999545" y="1398.16" as="sourcePoint"/>
                        <mxPoint x="40" y="1240" as="targetPoint"/>
                    </mxGeometry>
                </mxCell>
                <mxCell id="114" value="" style="endArrow=none;html=1;endFill=0;jumpStyle=arc;" parent="1" edge="1">
                    <mxGeometry width="50" height="50" relative="1" as="geometry">
                        <mxPoint x="40" y="1240" as="sourcePoint"/>
                        <mxPoint x="360" y="1240" as="targetPoint"/>
                        <Array as="points">
                            <mxPoint x="80" y="1240"/>
                        </Array>
                    </mxGeometry>
                </mxCell>
                <mxCell id="115" value="fuelFlowing" style="edgeLabel;html=1;align=center;verticalAlign=middle;resizable=0;points=[];" parent="114" vertex="1" connectable="0">
                    <mxGeometry x="0.7021" relative="1" as="geometry">
                        <mxPoint x="-403" y="-10" as="offset"/>
                    </mxGeometry>
                </mxCell>
                <mxCell id="116" value="" style="endArrow=classic;html=1;jumpStyle=arc;exitX=1.003;exitY=0.424;exitDx=0;exitDy=0;exitPerimeter=0;" parent="1" source="23" edge="1">
                    <mxGeometry width="50" height="50" relative="1" as="geometry">
                        <mxPoint x="-118" y="1171" as="sourcePoint"/>
                        <mxPoint y="1200" as="targetPoint"/>
                    </mxGeometry>
                </mxCell>
                <mxCell id="117" value="" style="endArrow=none;html=1;endFill=0;jumpStyle=arc;entryX=0.5;entryY=0;entryDx=0;entryDy=0;" parent="1" target="119" edge="1">
                    <mxGeometry width="50" height="50" relative="1" as="geometry">
                        <mxPoint y="1200" as="sourcePoint"/>
                        <mxPoint x="80" y="1080" as="targetPoint"/>
                        <Array as="points">
                            <mxPoint x="40" y="1200"/>
                        </Array>
                    </mxGeometry>
                </mxCell>
                <mxCell id="118" value="fillActive" style="edgeLabel;html=1;align=center;verticalAlign=middle;resizable=0;points=[];" parent="117" vertex="1" connectable="0">
                    <mxGeometry x="0.7021" relative="1" as="geometry">
                        <mxPoint x="-250" as="offset"/>
                    </mxGeometry>
                </mxCell>
                <mxCell id="119" value="" style="verticalLabelPosition=bottom;verticalAlign=top;html=1;shape=offPageConnector;rounded=0;size=0.2916666666666667;rotation=-90;" parent="1" vertex="1">
                    <mxGeometry x="138.25" y="1160" width="38.25" height="80" as="geometry"/>
                </mxCell>
                <mxCell id="121" value="" style="endArrow=classic;html=1;jumpStyle=arc;exitX=0.5;exitY=1;exitDx=0;exitDy=0;" parent="1" source="119" edge="1">
                    <mxGeometry width="50" height="50" relative="1" as="geometry">
                        <mxPoint x="260" y="1417" as="sourcePoint"/>
                        <mxPoint x="240" y="1200" as="targetPoint"/>
                    </mxGeometry>
                </mxCell>
                <mxCell id="122" value="" style="endArrow=none;html=1;endFill=0;jumpStyle=arc;entryX=-0.008;entryY=0.397;entryDx=0;entryDy=0;entryPerimeter=0;" parent="1" target="29" edge="1">
                    <mxGeometry width="50" height="50" relative="1" as="geometry">
                        <mxPoint x="240" y="1200" as="sourcePoint"/>
                        <mxPoint x="350" y="1070" as="targetPoint"/>
                    </mxGeometry>
                </mxCell>
                <mxCell id="123" value="fillActive" style="edgeLabel;html=1;align=center;verticalAlign=middle;resizable=0;points=[];" parent="122" vertex="1" connectable="0">
                    <mxGeometry x="0.7021" relative="1" as="geometry">
                        <mxPoint x="49" y="1" as="offset"/>
                    </mxGeometry>
                </mxCell>
                <mxCell id="133" value="" style="endArrow=none;html=1;endFill=0;jumpStyle=arc;entryX=0;entryY=0.75;entryDx=0;entryDy=0;" parent="1" target="51" edge="1">
                    <mxGeometry width="50" height="50" relative="1" as="geometry">
                        <mxPoint y="1200" as="sourcePoint"/>
                        <mxPoint x="710" y="700" as="targetPoint"/>
                        <Array as="points">
                            <mxPoint x="40" y="1200"/>
                            <mxPoint x="40" y="1030"/>
                            <mxPoint x="40" y="980"/>
                            <mxPoint x="40" y="680"/>
                        </Array>
                    </mxGeometry>
                </mxCell>
                <mxCell id="134" value="fillActive" style="edgeLabel;html=1;align=center;verticalAlign=middle;resizable=0;points=[];" parent="133" vertex="1" connectable="0">
                    <mxGeometry x="0.7021" relative="1" as="geometry">
                        <mxPoint x="143" y="-13" as="offset"/>
                    </mxGeometry>
                </mxCell>
                <mxCell id="135" value="" style="endArrow=none;html=1;endFill=0;jumpStyle=arc;entryX=0;entryY=0.75;entryDx=0;entryDy=0;" parent="1" target="52" edge="1">
                    <mxGeometry width="50" height="50" relative="1" as="geometry">
                        <mxPoint x="40" y="975.6000000000003" as="sourcePoint"/>
                        <mxPoint x="167.00000000000045" y="970.0000000000001" as="targetPoint"/>
                        <Array as="points">
                            <mxPoint x="40" y="880"/>
                        </Array>
                    </mxGeometry>
                </mxCell>
                <mxCell id="136" value="fillActive" style="edgeLabel;html=1;align=center;verticalAlign=middle;resizable=0;points=[];" parent="135" vertex="1" connectable="0">
                    <mxGeometry x="0.7021" relative="1" as="geometry">
                        <mxPoint x="83" y="-13" as="offset"/>
                    </mxGeometry>
                </mxCell>
                <mxCell id="137" value="" style="endArrow=none;html=1;endFill=0;jumpStyle=arc;entryX=0;entryY=0.75;entryDx=0;entryDy=0;" parent="1" target="53" edge="1">
                    <mxGeometry width="50" height="50" relative="1" as="geometry">
                        <mxPoint x="40" y="1080" as="sourcePoint"/>
                        <mxPoint x="167.00000000000045" y="970.0000000000001" as="targetPoint"/>
                        <Array as="points"/>
                    </mxGeometry>
                </mxCell>
                <mxCell id="138" value="fillActive" style="edgeLabel;html=1;align=center;verticalAlign=middle;resizable=0;points=[];" parent="137" vertex="1" connectable="0">
                    <mxGeometry x="0.7021" relative="1" as="geometry">
                        <mxPoint x="69" y="-13" as="offset"/>
                    </mxGeometry>
                </mxCell>
                <mxCell id="139" value="" style="endArrow=classic;html=1;jumpStyle=arc;exitX=1.018;exitY=0.726;exitDx=0;exitDy=0;exitPerimeter=0;" parent="1" edge="1" source="22">
                    <mxGeometry width="50" height="50" relative="1" as="geometry">
                        <mxPoint x="-480" y="680" as="sourcePoint"/>
                        <mxPoint x="280" y="600" as="targetPoint"/>
                        <Array as="points">
                            <mxPoint y="600"/>
                        </Array>
                    </mxGeometry>
                </mxCell>
                <mxCell id="140" value="" style="endArrow=none;html=1;endFill=0;entryX=0;entryY=0.25;entryDx=0;entryDy=0;jumpStyle=arc;" parent="1" target="51" edge="1">
                    <mxGeometry width="50" height="50" relative="1" as="geometry">
                        <mxPoint x="280" y="600" as="sourcePoint"/>
                        <mxPoint x="687.5000000000005" y="520" as="targetPoint"/>
                        <Array as="points">
                            <mxPoint x="360" y="600"/>
                        </Array>
                    </mxGeometry>
                </mxCell>
                <mxCell id="141" value="price" style="edgeLabel;html=1;align=center;verticalAlign=middle;resizable=0;points=[];" parent="140" vertex="1" connectable="0">
                    <mxGeometry x="0.7021" relative="1" as="geometry">
                        <mxPoint x="24" y="-21" as="offset"/>
                    </mxGeometry>
                </mxCell>
                <mxCell id="142" value="" style="endArrow=none;html=1;endFill=0;entryX=0;entryY=0.25;entryDx=0;entryDy=0;jumpStyle=arc;" parent="1" target="52" edge="1">
                    <mxGeometry width="50" height="50" relative="1" as="geometry">
                        <mxPoint x="280" y="600" as="sourcePoint"/>
                        <mxPoint x="730" y="640" as="targetPoint"/>
                        <Array as="points">
                            <mxPoint x="360" y="600"/>
                            <mxPoint x="360" y="800"/>
                        </Array>
                    </mxGeometry>
                </mxCell>
                <mxCell id="143" value="price" style="edgeLabel;html=1;align=center;verticalAlign=middle;resizable=0;points=[];" parent="142" vertex="1" connectable="0">
                    <mxGeometry x="0.7021" relative="1" as="geometry">
                        <mxPoint x="63" y="-21" as="offset"/>
                    </mxGeometry>
                </mxCell>
                <mxCell id="144" value="" style="endArrow=none;html=1;endFill=0;entryX=0;entryY=0.25;entryDx=0;entryDy=0;jumpStyle=arc;" parent="1" target="53" edge="1">
                    <mxGeometry width="50" height="50" relative="1" as="geometry">
                        <mxPoint x="280" y="600" as="sourcePoint"/>
                        <mxPoint x="730" y="810" as="targetPoint"/>
                        <Array as="points">
                            <mxPoint x="360" y="600"/>
                            <mxPoint x="360" y="1000"/>
                        </Array>
                    </mxGeometry>
                </mxCell>
                <mxCell id="145" value="price" style="edgeLabel;html=1;align=center;verticalAlign=middle;resizable=0;points=[];" parent="144" vertex="1" connectable="0">
                    <mxGeometry x="0.7021" relative="1" as="geometry">
                        <mxPoint x="93" y="-21" as="offset"/>
                    </mxGeometry>
                </mxCell>
                <mxCell id="146" value="" style="endArrow=classic;html=1;exitX=1;exitY=0.5;exitDx=0;exitDy=0;jumpStyle=arc;" parent="1" source="51" edge="1">
                    <mxGeometry width="50" height="50" relative="1" as="geometry">
                        <mxPoint x="1079.9999999999995" y="639.995" as="sourcePoint"/>
                        <mxPoint x="1160" y="640" as="targetPoint"/>
                    </mxGeometry>
                </mxCell>
                <mxCell id="147" value="" style="endArrow=none;html=1;endFill=0;jumpStyle=arc;entryX=0.003;entryY=0.253;entryDx=0;entryDy=0;entryPerimeter=0;" parent="1" edge="1">
                    <mxGeometry width="50" height="50" relative="1" as="geometry">
                        <mxPoint x="1160" y="640" as="sourcePoint"/>
                        <mxPoint x="1310.3599999999988" y="639.4999999999995" as="targetPoint"/>
                    </mxGeometry>
                </mxCell>
                <mxCell id="148" value="priceLCD1" style="edgeLabel;html=1;align=center;verticalAlign=middle;resizable=0;points=[];" parent="1" vertex="1" connectable="0">
                    <mxGeometry x="1250.0010188847777" y="610.0014622103652" as="geometry"/>
                </mxCell>
                <mxCell id="149" value="" style="endArrow=classic;html=1;exitX=1;exitY=0.5;exitDx=0;exitDy=0;jumpStyle=arc;" parent="1" source="52" edge="1">
                    <mxGeometry width="50" height="50" relative="1" as="geometry">
                        <mxPoint x="1079.9999999999995" y="839.4049999999999" as="sourcePoint"/>
                        <mxPoint x="1160" y="840" as="targetPoint"/>
                    </mxGeometry>
                </mxCell>
                <mxCell id="150" value="" style="endArrow=none;html=1;endFill=0;jumpStyle=arc;entryX=-0.02;entryY=0.387;entryDx=0;entryDy=0;entryPerimeter=0;" parent="1" edge="1">
                    <mxGeometry width="50" height="50" relative="1" as="geometry">
                        <mxPoint x="1160" y="840.41" as="sourcePoint"/>
                        <mxPoint x="1307.5999999999995" y="840.5" as="targetPoint"/>
                    </mxGeometry>
                </mxCell>
                <mxCell id="151" value="" style="endArrow=classic;html=1;exitX=1;exitY=0.5;exitDx=0;exitDy=0;jumpStyle=arc;" parent="1" source="53" edge="1">
                    <mxGeometry width="50" height="50" relative="1" as="geometry">
                        <mxPoint x="1079.9999999999995" y="1039.405" as="sourcePoint"/>
                        <mxPoint x="1160" y="1040" as="targetPoint"/>
                    </mxGeometry>
                </mxCell>
                <mxCell id="152" value="" style="endArrow=none;html=1;endFill=0;jumpStyle=arc;entryX=-0.013;entryY=0.52;entryDx=0;entryDy=0;entryPerimeter=0;" parent="1" edge="1">
                    <mxGeometry width="50" height="50" relative="1" as="geometry">
                        <mxPoint x="1160" y="1040.41" as="sourcePoint"/>
                        <mxPoint x="1308.4400000000005" y="1040" as="targetPoint"/>
                    </mxGeometry>
                </mxCell>
                <mxCell id="153" value="priceLCD2" style="edgeLabel;html=1;align=center;verticalAlign=middle;resizable=0;points=[];" parent="1" vertex="1" connectable="0">
                    <mxGeometry x="1250.0010188847777" y="810.0014622103652" as="geometry"/>
                </mxCell>
                <mxCell id="154" value="priceLCD3" style="edgeLabel;html=1;align=center;verticalAlign=middle;resizable=0;points=[];" parent="1" vertex="1" connectable="0">
                    <mxGeometry x="1260.0010188847777" y="1000.0014622103652" as="geometry"/>
                </mxCell>
                <mxCell id="156" value="saleQuantityLCD" style="edgeLabel;html=1;align=center;verticalAlign=middle;resizable=0;points=[];" parent="1" vertex="1" connectable="0">
                    <mxGeometry x="1229.99907368548" y="449.99867889605343" as="geometry"/>
                </mxCell>
                <mxCell id="157" value="value" style="edgeLabel;html=1;align=center;verticalAlign=middle;resizable=0;points=[];" parent="1" vertex="1" connectable="0">
                    <mxGeometry x="-140.00198920953045" y="1669.9979671886354" as="geometry"/>
                </mxCell>
                <mxCell id="158" value="dollarsDelivered" style="edgeLabel;html=1;align=center;verticalAlign=middle;resizable=0;points=[];" parent="1" vertex="1" connectable="0">
                    <mxGeometry x="-530.0016336065437" y="398.74603141339503" as="geometry"/>
                </mxCell>
                <mxCell id="159" value="litersDelivered" style="edgeLabel;html=1;align=center;verticalAlign=middle;resizable=0;points=[];" parent="1" vertex="1" connectable="0">
                    <mxGeometry x="-530.0000166015607" y="479.87375000518796" as="geometry"/>
                </mxCell>
                <mxCell id="160" value="price1" style="edgeLabel;html=1;align=center;verticalAlign=middle;resizable=0;points=[];" parent="1" vertex="1" connectable="0">
                    <mxGeometry x="699.9982971462673" y="619.9978404285572" as="geometry">
                        <mxPoint x="-2" y="-2" as="offset"/>
                    </mxGeometry>
                </mxCell>
                <mxCell id="161" value="price2" style="edgeLabel;html=1;align=center;verticalAlign=middle;resizable=0;points=[];" parent="1" vertex="1" connectable="0">
                    <mxGeometry x="699.9982971462673" y="819.9978404285572" as="geometry">
                        <mxPoint x="-2" y="-2" as="offset"/>
                    </mxGeometry>
                </mxCell>
                <mxCell id="163" value="price3" style="edgeLabel;html=1;align=center;verticalAlign=middle;resizable=0;points=[];" parent="1" vertex="1" connectable="0">
                    <mxGeometry x="709.9982971462673" y="1019.9978404285571" as="geometry">
                        <mxPoint x="-2" y="-2" as="offset"/>
                    </mxGeometry>
                </mxCell>
                <mxCell id="164" value="fuelFlowing" style="edgeLabel;html=1;align=center;verticalAlign=middle;resizable=0;points=[];" parent="1" vertex="1" connectable="0">
                    <mxGeometry x="329.9966666666665" y="1230" as="geometry"/>
                </mxCell>
                <mxCell id="165" value="price" style="edgeLabel;html=1;align=center;verticalAlign=middle;resizable=0;points=[];" parent="1" vertex="1" connectable="0">
                    <mxGeometry x="-510.002853304861" y="599.9980535554372" as="geometry"/>
                </mxCell>
                <mxCell id="169" value="fi.price" style="edgeLabel;html=1;align=center;verticalAlign=middle;resizable=0;points=[];" parent="1" vertex="1" connectable="0">
                    <mxGeometry x="389.9982971462673" y="1159.997840428557" as="geometry">
                        <mxPoint y="-3" as="offset"/>
                    </mxGeometry>
                </mxCell>
                <mxCell id="170" value="" style="endArrow=none;html=1;endFill=0;jumpStyle=arc;entryX=-0.014;entryY=0.199;entryDx=0;entryDy=0;entryPerimeter=0;" edge="1" parent="1" target="29">
                    <mxGeometry width="50" height="50" relative="1" as="geometry">
                        <mxPoint x="10" y="600" as="sourcePoint"/>
                        <mxPoint x="350" y="1150" as="targetPoint"/>
                        <Array as="points">
                            <mxPoint x="80" y="600"/>
                            <mxPoint x="80" y="1160"/>
                        </Array>
                    </mxGeometry>
                </mxCell>
                <mxCell id="172" value="" style="endArrow=none;html=1;endFill=0;jumpStyle=arc;entryX=-0.029;entryY=0.139;entryDx=0;entryDy=0;entryPerimeter=0;" edge="1" parent="1" target="29">
                    <mxGeometry width="50" height="50" relative="1" as="geometry">
                        <mxPoint x="120" y="400" as="sourcePoint"/>
                        <mxPoint x="140" y="1150" as="targetPoint"/>
                        <Array as="points">
                            <mxPoint x="120" y="1148"/>
                        </Array>
                    </mxGeometry>
                </mxCell>
                <mxCell id="173" value="fi.dollarsDelivered" style="edgeLabel;html=1;align=center;verticalAlign=middle;resizable=0;points=[];" vertex="1" connectable="0" parent="172">
                    <mxGeometry x="0.7021" relative="1" as="geometry">
                        <mxPoint x="210" y="-8" as="offset"/>
                    </mxGeometry>
                </mxCell>
                <mxCell id="174" value="" style="endArrow=none;html=1;endFill=0;jumpStyle=arc;entryX=0;entryY=0;entryDx=0;entryDy=0;" edge="1" parent="1" target="29">
                    <mxGeometry width="50" height="50" relative="1" as="geometry">
                        <mxPoint x="160" y="480" as="sourcePoint"/>
                        <mxPoint x="350" y="1100" as="targetPoint"/>
                        <Array as="points">
                            <mxPoint x="160" y="1120"/>
                        </Array>
                    </mxGeometry>
                </mxCell>
                <mxCell id="175" value="fi.litersDelivered" style="edgeLabel;html=1;align=center;verticalAlign=middle;resizable=0;points=[];" vertex="1" connectable="0" parent="174">
                    <mxGeometry x="0.7021" relative="1" as="geometry">
                        <mxPoint x="175" as="offset"/>
                    </mxGeometry>
                </mxCell>
                <mxCell id="176" value="" style="endArrow=none;html=1;endFill=0;jumpStyle=arc;entryX=0;entryY=0.429;entryDx=0;entryDy=0;entryPerimeter=0;" edge="1" parent="1" target="23">
                    <mxGeometry width="50" height="50" relative="1" as="geometry">
                        <mxPoint x="-480" y="600" as="sourcePoint"/>
                        <mxPoint x="-250" y="1160" as="targetPoint"/>
                        <Array as="points">
                            <mxPoint x="-400" y="600"/>
                            <mxPoint x="-400" y="1200"/>
                        </Array>
                    </mxGeometry>
                </mxCell>
                <mxCell id="177" value="" style="endArrow=none;html=1;endFill=0;jumpStyle=arc;entryX=-0.011;entryY=0.283;entryDx=0;entryDy=0;entryPerimeter=0;" edge="1" parent="1" target="23">
                    <mxGeometry width="50" height="50" relative="1" as="geometry">
                        <mxPoint x="-360" y="398.75" as="sourcePoint"/>
                        <mxPoint x="-123.48000000000047" y="1146.5500000000002" as="targetPoint"/>
                        <Array as="points">
                            <mxPoint x="-360" y="1160"/>
                        </Array>
                    </mxGeometry>
                </mxCell>
                <mxCell id="178" value="fi.dollarsDelivered" style="edgeLabel;html=1;align=center;verticalAlign=middle;resizable=0;points=[];" vertex="1" connectable="0" parent="177">
                    <mxGeometry x="0.7021" relative="1" as="geometry">
                        <mxPoint x="180" y="12" as="offset"/>
                    </mxGeometry>
                </mxCell>
                <mxCell id="179" value="fi.price" style="edgeLabel;html=1;align=center;verticalAlign=middle;resizable=0;points=[];" vertex="1" connectable="0" parent="1">
                    <mxGeometry x="-210.0017028537327" y="1199.997840428557" as="geometry">
                        <mxPoint y="-3" as="offset"/>
                    </mxGeometry>
                </mxCell>
                <mxCell id="180" value="" style="endArrow=none;html=1;endFill=0;jumpStyle=arc;" edge="1" parent="1">
                    <mxGeometry width="50" height="50" relative="1" as="geometry">
                        <mxPoint x="-320" y="480" as="sourcePoint"/>
                        <mxPoint x="-240" y="1120" as="targetPoint"/>
                        <Array as="points">
                            <mxPoint x="-320" y="1120"/>
                        </Array>
                    </mxGeometry>
                </mxCell>
                <mxCell id="181" value="fi.litersDelivered" style="edgeLabel;html=1;align=center;verticalAlign=middle;resizable=0;points=[];" vertex="1" connectable="0" parent="180">
                    <mxGeometry x="0.7021" relative="1" as="geometry">
                        <mxPoint x="130" y="28" as="offset"/>
                    </mxGeometry>
                </mxCell>
                <mxCell id="182" value="" style="endArrow=classic;html=1;jumpStyle=arc;entryX=-0.003;entryY=0.71;entryDx=0;entryDy=0;exitX=1.002;exitY=0.278;exitDx=0;exitDy=0;entryPerimeter=0;exitPerimeter=0;" edge="1" parent="1" source="25" target="23">
                    <mxGeometry width="50" height="50" relative="1" as="geometry">
                        <mxPoint x="-870" y="590.0000000000002" as="sourcePoint"/>
                        <mxPoint x="-230" y="1250" as="targetPoint"/>
                        <Array as="points">
                            <mxPoint x="-880" y="1280"/>
                        </Array>
                    </mxGeometry>
                </mxCell>
                <mxCell id="183" value="lc.sStart" style="edgeLabel;html=1;align=center;verticalAlign=middle;resizable=0;points=[];" vertex="1" connectable="0" parent="182">
                    <mxGeometry x="0.8043" y="1" relative="1" as="geometry">
                        <mxPoint x="101" y="3" as="offset"/>
                    </mxGeometry>
                </mxCell>
                <mxCell id="184" value="" style="endArrow=classic;html=1;jumpStyle=arc;entryX=-0.001;entryY=0.659;entryDx=0;entryDy=0;exitX=1.002;exitY=0.278;exitDx=0;exitDy=0;entryPerimeter=0;exitPerimeter=0;" edge="1" parent="1">
                    <mxGeometry width="50" height="50" relative="1" as="geometry">
                        <mxPoint x="-960" y="1320" as="sourcePoint"/>
                        <mxPoint x="-240.3599999999999" y="1318.12" as="targetPoint"/>
                        <Array as="points">
                            <mxPoint x="-880.24" y="1319.96"/>
                        </Array>
                    </mxGeometry>
                </mxCell>
                <mxCell id="185" value="lc.sEnd" style="edgeLabel;html=1;align=center;verticalAlign=middle;resizable=0;points=[];" vertex="1" connectable="0" parent="184">
                    <mxGeometry x="0.8043" y="1" relative="1" as="geometry">
                        <mxPoint x="101" y="3" as="offset"/>
                    </mxGeometry>
                </mxCell>
            </root>
        </mxGraphModel>
    </diagram>
</mxfile>